<?xml version="1.0" encoding="UTF-8"?>
<svg id="_图层_1" data-name="图层 1" xmlns="http://www.w3.org/2000/svg" viewBox="0 0 23.1 23.1">
  <defs>
    <style>
      .cls-1 {
        stroke: #000;
        stroke-miterlimit: 10;
        stroke-width: .4px;
      }
    </style>
  </defs>
  <path class="cls-1" d="M.3,11.55c0-1.03.13-2.03.4-2.98s.65-1.85,1.14-2.69,1.07-1.6,1.76-2.28,1.44-1.27,2.28-1.76,1.73-.87,2.69-1.14,1.95-.4,2.98-.4,2.03.13,2.98.4,1.85.65,2.68,1.14,1.59,1.08,2.28,1.76,1.28,1.45,1.76,2.28.87,1.73,1.14,2.68.4,1.95.4,2.98-.13,2.02-.4,2.98-.65,1.85-1.14,2.69-1.07,1.6-1.76,2.28-1.44,1.27-2.28,1.76-1.73.87-2.69,1.14-1.95.4-2.98.4-2.04-.13-2.99-.4-1.85-.65-2.68-1.14-1.59-1.07-2.27-1.76-1.27-1.44-1.76-2.27-.87-1.73-1.14-2.69-.4-1.96-.4-2.99ZM21.3,11.55c0-.9-.12-1.76-.35-2.59s-.56-1.6-.98-2.33-.93-1.38-1.52-1.97-1.25-1.1-1.97-1.52-1.5-.75-2.33-.98-1.69-.35-2.59-.35-1.76.12-2.59.35-1.6.56-2.33.98-1.38.93-1.97,1.52-1.1,1.25-1.52,1.97-.75,1.5-.98,2.33-.35,1.69-.35,2.59.12,1.76.35,2.59.56,1.6.98,2.33.93,1.38,1.52,1.97,1.25,1.1,1.97,1.52,1.5.75,2.33.98,1.69.35,2.59.35,1.76-.12,2.59-.35,1.6-.56,2.33-.98,1.38-.93,1.97-1.52,1.1-1.25,1.52-1.97.75-1.5.98-2.33.35-1.69.35-2.59ZM9.3,16.05c0-.2.07-.38.22-.53l3.97-3.97-3.97-3.97c-.15-.15-.22-.32-.22-.53s.07-.38.22-.53.32-.22.53-.22.38.07.53.22l4.5,4.5c.15.15.22.32.22.53s-.07.38-.22.53l-4.5,4.5c-.15.15-.32.22-.53.22s-.38-.07-.53-.22-.22-.32-.22-.53Z"/>
</svg>