<?xml version="1.0" encoding="UTF-8"?>
<svg id="_图层_1" data-name="图层_1" xmlns="http://www.w3.org/2000/svg" version="1.1" viewBox="0 0 24 24">
  <!-- Generator: Adobe Illustrator 29.6.0, SVG Export Plug-In . SVG Version: 2.1.1 Build 207)  -->
  <path d="M3,6.69c0-.2.07-.38.22-.53s.32-.22.53-.22h14.7L13.72,1.21c-.15-.15-.22-.32-.22-.53s.07-.38.22-.53.32-.22.53-.22.38.07.53.22l5.96,5.96c.09.09.15.17.19.26s.06.19.06.3-.02.22-.06.3-.11.17-.19.26l-5.96,5.96c-.15.15-.32.22-.53.22s-.38-.07-.53-.22-.22-.32-.22-.53.07-.38.22-.53l4.72-4.72H3.75c-.2,0-.38-.07-.53-.22s-.22-.32-.22-.53ZM21,17.19c0,.2-.07.38-.22.53s-.32.22-.53.22H5.57l4.71,4.72c.15.15.22.32.22.53s-.07.38-.22.53-.32.22-.53.22-.38-.07-.53-.22l-5.96-5.96c-.09-.09-.15-.17-.19-.26s-.06-.19-.06-.3.02-.22.06-.3.11-.17.19-.26l5.96-5.96c.15-.15.32-.22.53-.22s.38.07.53.22.22.32.22.53-.07.38-.22.53l-4.71,4.72h14.68c.2,0,.38.07.53.22s.22.32.22.53Z"/>
</svg>