<?xml version="1.0" encoding="UTF-8"?>
<svg id="_图层_1" data-name="图层 1" xmlns="http://www.w3.org/2000/svg" viewBox="0 0 16.5 16.5">
  <defs>
    <style>
      .cls-1 {
        fill: #fff;
      }
    </style>
  </defs>
  <path class="cls-1" d="M9.3,8.25l6.97,6.97c.15.15.22.32.22.53s-.07.38-.22.53-.32.22-.53.22-.38-.07-.53-.22l-6.97-6.97-6.97,6.97c-.15.15-.32.22-.53.22s-.38-.07-.53-.22-.22-.32-.22-.53.07-.38.22-.53l6.97-6.97L.22,1.28c-.15-.15-.22-.32-.22-.53S.07.37.22.22s.32-.22.53-.22.38.07.53.22l6.97,6.97L15.22.22c.15-.15.32-.22.53-.22s.38.07.53.22.22.32.22.53-.07.38-.22.53l-6.97,6.97Z"/>
</svg>