<?xml version="1.0" encoding="UTF-8"?>
<svg id="_图层_1" xmlns="http://www.w3.org/2000/svg" version="1.1" viewBox="0 0 24 24">
  <!-- Generator: Adobe Illustrator 29.6.0, SVG Export Plug-In . SVG Version: 2.1.1 Build 207)  -->
  <defs>
    <style>
      .st0 {
        fill: #fff;
      }
    </style>
  </defs>
  <path class="st0" d="M1.91,18.23c0-.23.05-.4.16-.52.11-.12.25-.23.43-.33.22-.12.45-.21.7-.29s.49-.16.71-.25c.69-.27,1.36-.58,2.02-.93s1.28-.74,1.86-1.18c.73-.55,1.38-1.18,1.93-1.87s1.02-1.43,1.39-2.21c.37-.79.65-1.61.84-2.48s.28-1.76.28-2.67c0-.76-.06-1.5-.18-2.22s-.26-1.45-.4-2.19c0-.04-.01-.07-.02-.11s0-.07,0-.11c0-.25.09-.46.26-.63s.38-.24.63-.24c.45,0,.9.04,1.38.12.48.08.94.2,1.41.34s.92.31,1.37.5.86.4,1.24.62c.92.53,1.75,1.17,2.5,1.92s1.37,1.57,1.89,2.47.91,1.86,1.19,2.88c.28,1.02.42,2.06.42,3.12s-.14,2.16-.43,3.18c-.29,1.02-.69,1.97-1.21,2.86s-1.15,1.69-1.88,2.42-1.54,1.35-2.43,1.87-1.85.92-2.87,1.21-2.08.43-3.18.43c-.94,0-1.88-.12-2.84-.36s-1.86-.58-2.73-1.03-1.67-.99-2.41-1.63-1.36-1.36-1.87-2.17c-.1-.16-.15-.33-.15-.52h0ZM11.91,22.41c.96,0,1.89-.12,2.78-.38s1.73-.6,2.51-1.05,1.48-.99,2.12-1.63,1.18-1.34,1.64-2.12.81-1.61,1.06-2.5.38-1.82.38-2.78c0-.88-.1-1.72-.31-2.54s-.5-1.6-.89-2.33-.85-1.41-1.39-2.04-1.15-1.18-1.83-1.66-1.41-.88-2.2-1.19-1.62-.52-2.48-.63c.13.65.24,1.3.32,1.95s.12,1.31.12,1.97c0,1.14-.13,2.25-.39,3.32s-.66,2.11-1.19,3.12c-.45.86-.98,1.62-1.58,2.29s-1.26,1.27-1.97,1.79-1.48.99-2.3,1.4-1.66.78-2.54,1.11c.49.62,1.04,1.17,1.66,1.65s1.27.89,1.97,1.22c.7.33,1.43.58,2.19.76s1.54.26,2.33.26h0Z"/>
</svg>