<?xml version="1.0" encoding="UTF-8"?>
<svg id="_图层_1" xmlns="http://www.w3.org/2000/svg" version="1.1" viewBox="0 0 24 24">
  <!-- Generator: Adobe Illustrator 29.6.0, SVG Export Plug-In . SVG Version: 2.1.1 Build 207)  -->
  <defs>
    <style>
      .st0 {
        fill: #fff;
      }
    </style>
  </defs>
  <path class="st0" d="M.75,12.69c-.2,0-.38-.07-.53-.22S0,12.15,0,11.94s.07-.38.22-.53c.15-.15.32-.22.53-.22h1.5c.2,0,.38.07.53.22s.22.32.22.53-.07.38-.22.53-.32.22-.53.22H.75ZM3,3.69c0-.2.07-.38.22-.53s.32-.22.53-.22.38.07.53.22l1.5,1.5c.15.15.22.32.22.53s-.07.38-.22.53-.32.22-.53.22-.38-.07-.53-.22l-1.5-1.5c-.15-.15-.22-.32-.22-.53ZM3,20.19c0-.2.07-.38.22-.53l1.5-1.5c.15-.15.32-.22.53-.22s.38.07.53.22.22.32.22.53-.07.38-.22.53l-1.5,1.5c-.15.15-.32.22-.53.22s-.38-.07-.53-.22-.22-.32-.22-.53ZM6,11.94v-.12c0-.81.16-1.58.49-2.29s.76-1.34,1.31-1.87,1.19-.95,1.91-1.26,1.49-.46,2.29-.46,1.61.16,2.34.47,1.37.74,1.91,1.28c.54.54.97,1.18,1.28,1.91s.47,1.51.47,2.34-.16,1.61-.47,2.34-.74,1.37-1.28,1.91-1.18.97-1.91,1.28-1.51.47-2.34.47-1.61-.16-2.34-.47-1.37-.74-1.91-1.28-.97-1.18-1.28-1.91-.47-1.51-.47-2.34ZM16.5,11.94v-.09c0-.61-.12-1.18-.36-1.72s-.57-1-.98-1.4-.89-.71-1.44-.94-1.11-.35-1.72-.35-1.21.12-1.76.35-1.02.55-1.43.96-.73.88-.96,1.43-.35,1.13-.35,1.76.12,1.21.35,1.76c.23.55.55,1.02.96,1.43s.88.73,1.43.96,1.13.35,1.76.35,1.21-.12,1.76-.35,1.02-.55,1.43-.96.73-.88.96-1.43.35-1.13.35-1.76ZM11.25,2.19V.69c0-.2.07-.38.22-.53s.32-.22.53-.22.38.07.53.22c.15.15.22.32.22.53v1.5c0,.2-.07.38-.22.53s-.32.22-.53.22-.38-.07-.53-.22-.22-.32-.22-.53ZM11.25,23.19v-1.5c0-.2.07-.38.22-.53s.32-.22.53-.22.38.07.53.22.22.32.22.53v1.5c0,.2-.07.38-.22.53s-.32.22-.53.22-.38-.07-.53-.22-.22-.32-.22-.53ZM18,5.19c0-.2.07-.38.22-.53l1.5-1.5c.15-.15.32-.22.53-.22s.38.07.53.22.22.32.22.53-.07.38-.22.53l-1.5,1.5c-.15.15-.32.22-.53.22s-.38-.07-.53-.22-.22-.32-.22-.53ZM18,18.69c0-.2.07-.38.22-.53s.32-.22.53-.22.38.07.53.22l1.5,1.5c.15.15.22.32.22.53s-.07.38-.22.53-.32.22-.53.22-.38-.07-.53-.22l-1.5-1.5c-.15-.15-.22-.32-.22-.53ZM21.75,12.69c-.2,0-.38-.07-.53-.22s-.22-.32-.22-.53.07-.38.22-.53.32-.22.53-.22h1.5c.2,0,.38.07.53.22s.22.32.22.53-.07.38-.22.53-.32.22-.53.22h-1.5Z"/>
</svg>